<svg xmlns="http://www.w3.org/2000/svg" version="1.1" xmlns:xlink="http://www.w3.org/1999/xlink" xmlns:svgjs="http://svgjs.dev/svgjs" width="2000" height="2496" viewBox="0 0 2000 2496"><g transform="matrix(1,0,0,1,-2.66917293233098,0.34136896728273314)"><svg viewBox="0 0 133 166" data-background-color="#282634" preserveAspectRatio="xMidYMid meet" height="2496" width="2000" xmlns="http://www.w3.org/2000/svg" xmlns:xlink="http://www.w3.org/1999/xlink"><g id="tight-bounds" transform="matrix(1,0,0,1,0.1775000000000091,-0.022703224586905435)"><svg viewBox="0 0 132.6445132016047 166.0454064491738" height="166.0454064491738" width="132.6445132016047"><g><svg viewBox="0 0 132.6445132016047 166.0454064491738" height="166.0454064491738" width="132.6445132016047"><g><svg viewBox="0 0 132.6445132016047 166.0454064491738" height="166.0454064491738" width="132.6445132016047"><g><path d="M0 166.045v-166.045h132.645v166.045z" fill="#ff4057" stroke="transparent" stroke-width="0" rx="0%" data-fill-palette-color="tertiary"></path><path d="M3.283 162.762v-159.479h126.078v159.479z" fill="#282634" stroke="transparent" stroke-width="0" rx="0%" data-fill-palette-color="quaternary"></path><path d="M9.85 156.196v-146.346h112.945v146.346z" fill="#ff4057" stroke="transparent" stroke-width="0" data-fill-palette-color="tertiary"></path></g><g transform="matrix(1,0,0,1,19.699740000000006,19.69974)"><svg viewBox="0 0 93.24503320160468 126.64592644917381" height="126.64592644917381" width="93.24503320160468"><g><svg viewBox="0 0 93.24503320160468 100.57561757280003" height="100.57561757280003" width="93.24503320160468"><g transform="matrix(1,0,0,1,0,0)"><svg width="93.24503320160468" viewBox="0.8 -34.3 31.8 34.3" height="100.57561757280003" data-palette-color="#282634"><path d="M14.35 0L14.35-14.2 0.8-34.3 6.55-34.3 16.75-18.6 17-18.6 27.15-34.3 32.6-34.3 19.1-14.2 19.1 0 14.35 0Z" opacity="1" transform="matrix(1,0,0,1,0,0)" fill="#282634" class="undefined-text-0" data-fill-palette-color="quaternary" id="text-0"></path></svg></g></svg></g><g transform="matrix(1,0,0,1,0,107.14219757280003)"><svg viewBox="0 0 93.24503320160468 19.50372887637379" height="19.50372887637379" width="93.24503320160468"><g transform="matrix(1,0,0,1,0,0)"><svg width="93.24503320160468" viewBox="5 -33.25 162.54 34" height="19.50372887637379" data-palette-color="#282634"><path d="M13.05 0L13.05 0 5 0 5-32.5 13.05-32.5Q16.95-32.5 18.98-30.65 21-28.8 21-25.5L21-25.5 21-7Q21-3.65 19-1.83 17 0 13.05 0ZM17.5-7L17.5-7 17.5-25.5Q17.5-27.4 16.35-28.45 15.2-29.5 13.05-29.5L13.05-29.5 8.5-29.5 8.5-3 13.05-3Q17.5-3 17.5-7ZM42.5-6.25L42.5-6.25 42.5-9 46-9 46-6.25Q46-2.9 43.95-1.07 41.9 0.75 37.8 0.75 33.7 0.75 31.6-1.07 29.5-2.9 29.5-6.25L29.5-6.25 29.5-26.25Q29.5-29.6 31.55-31.43 33.6-33.25 37.7-33.25 41.8-33.25 43.9-31.43 46-29.6 46-26.25L46-26.25 46-15.25 33-15.25 33-6.25Q33-2.25 37.75-2.25 42.5-2.25 42.5-6.25ZM33-26.25L33-26.25 33-18.25 42.5-18.25 42.5-26.25Q42.5-30.25 37.75-30.25 33-30.25 33-26.25ZM70.75-26.25L70.75 0 69.25 0 67.95-3.2Q66.9-1.4 65.2-0.33 63.5 0.75 61.45 0.75L61.45 0.75Q54.25 0.75 54.25-6.25L54.25-6.25 54.25-11.25Q54.25-18.25 61.45-18.25L61.45-18.25 67.25-18.25 67.25-26.45Q67.25-28.25 66.09-29.25 64.95-30.25 62.7-30.25L62.7-30.25Q58.25-30.25 58.25-26.45L58.25-26.45 58.25-23.5 54.75-23.5 54.75-26.25Q54.75-29.6 56.72-31.43 58.7-33.25 62.7-33.25 66.7-33.25 68.72-31.43 70.75-29.6 70.75-26.25L70.75-26.25ZM67.25-7.1L67.25-15.25 61.45-15.25Q59.35-15.25 58.55-14.2 57.75-13.15 57.75-11.25L57.75-11.25 57.75-6.25Q57.75-4.35 58.55-3.3 59.35-2.25 61.45-2.25 63.55-2.25 65.34-3.88 67.15-5.5 67.25-7.1L67.25-7.1ZM79.49-5.75L79.49-32.5 90.49-32.5 90.49-29.5 82.99-29.5 82.99-5.55Q82.99-4.15 83.72-3.2 84.44-2.25 85.77-2.25 87.09-2.25 87.79-3.18 88.49-4.1 88.49-5.55L88.49-5.55 88.49-11.5 91.99-11.5 91.99-5.75Q91.99-2.6 90.32-0.93 88.64 0.75 85.79 0.75 82.94 0.75 81.22-0.93 79.49-2.6 79.49-5.75L79.49-5.75ZM102.49-15L102.49 0 98.99 0 98.99-32.5 102.49-32.5 102.49-18 112.34-18 112.34-32.5 115.84-32.5 115.84 0 112.34 0 112.34-15 102.49-15ZM142.04-26.2L142.09-26.2 142.09-6.25Q142.09 0.75 133.64 0.75 125.19 0.75 125.19-6.25L125.19-6.25 125.19-9.5 128.69-9.5 128.69-6.05Q128.69-2.25 133.64-2.25 138.59-2.25 138.59-6.05L138.59-6.05 138.59-15Q136.94-13.25 133.16-13.25 129.39-13.25 127.24-15.08 125.09-16.9 125.09-20.25L125.09-20.25 125.09-26.25Q125.09-29.6 127.21-31.43 129.34-33.25 133.56-33.25 137.79-33.25 139.94-31.43 142.09-29.6 142.09-26.25L142.09-26.25 142.04-26.2ZM138.59-20.25L138.59-20.25 138.59-26.25Q138.59-30.25 133.59-30.25 128.59-30.25 128.59-26.25L128.59-26.25 128.59-20.25Q128.59-16.25 133.59-16.25 138.59-16.25 138.59-20.25ZM150.64-6.25L150.64-6.25 150.64-11Q150.64-15.1 154.24-16.25L154.24-16.25Q150.64-17.3 150.64-21.5L150.64-21.5 150.64-26.25Q150.64-33.25 158.69-33.25L158.69-33.25Q162.89-33.25 164.96-31.43 167.04-29.6 167.04-26.25L167.04-26.25 167.04-21.5Q167.04-17.4 163.69-16.3L163.69-16.3Q167.54-15.25 167.54-11L167.54-11 167.54-6.25Q167.54 0.75 159.09 0.75 150.64 0.75 150.64-6.25ZM159.59-15L159.59-15 158.59-15Q156.49-15 155.31-13.8 154.14-12.6 154.14-11L154.14-11 154.14-6.05Q154.14-4.25 155.39-3.25 156.64-2.25 159.09-2.25 161.53-2.25 162.78-3.25 164.03-4.25 164.03-6.05L164.03-6.05 164.03-11Q164.03-12.6 162.86-13.8 161.69-15 159.59-15ZM154.14-26.45L154.14-26.45 154.14-21.5Q154.14-19.85 155.31-18.68 156.49-17.5 158.59-17.5L158.59-17.5 159.09-17.5Q161.19-17.5 162.36-18.68 163.53-19.85 163.53-21.5L163.53-21.5 163.53-26.45Q163.53-28.25 162.36-29.25 161.19-30.25 158.84-30.25 156.49-30.25 155.31-29.25 154.14-28.25 154.14-26.45Z" opacity="1" transform="matrix(1,0,0,1,0,0)" fill="#282634" class="undefined-text-1" data-fill-palette-color="quaternary" id="text-1"></path></svg></g></svg></g></svg></g></svg></g><g></g></svg></g><defs></defs></svg><rect width="132.6445132016047" height="166.0454064491738" fill="none" stroke="none" visibility="hidden"></rect></g></svg></g></svg>